<svg width="49" height="49" viewBox="0 0 49 49" fill="none" xmlns="http://www.w3.org/2000/svg">
<path d="M24.7998 4.50002C22.1986 4.40556 19.6051 4.83827 17.1754 5.7721C14.7457 6.70594 12.5301 8.1216 10.6617 9.93393C8.79332 11.7463 7.31084 13.9178 6.30346 16.3179C5.29608 18.718 4.7846 21.2971 4.7998 23.9C4.76628 26.6024 5.30904 29.2808 6.39191 31.7569C7.47479 34.2331 9.07291 36.45 11.0798 38.26C11.2391 38.4019 11.3689 38.5739 11.4615 38.7661C11.5542 38.9583 11.608 39.167 11.6198 39.38V42.94C11.6308 43.2024 11.7054 43.4583 11.8372 43.6855C11.969 43.9126 12.1541 44.1044 12.3765 44.2441C12.5989 44.3839 12.852 44.4674 13.1139 44.4876C13.3757 44.5078 13.6386 44.464 13.8798 44.36L17.8798 42.62C18.2214 42.491 18.5982 42.491 18.9398 42.62C20.8307 43.1304 22.7813 43.386 24.7398 43.38C29.8956 43.388 34.8434 41.3475 38.4947 37.7074C42.1461 34.0673 44.2018 29.1258 44.2098 23.97C44.2178 18.8142 42.1773 13.8664 38.5372 10.2151C34.8971 6.56374 29.9556 4.50797 24.7998 4.50002ZM36.7998 19.42L30.9398 28.74C30.7188 29.0909 30.4274 29.3922 30.0841 29.6248C29.7408 29.8574 29.353 30.0163 28.9452 30.0915C28.5374 30.1666 28.1184 30.1565 27.7147 30.0615C27.311 29.9666 26.9314 29.789 26.5998 29.54L21.9198 26.04C21.7121 25.8842 21.4594 25.8 21.1998 25.8C20.9402 25.8 20.6875 25.8842 20.4798 26.04L14.1598 30.84C13.9838 30.9758 13.7654 31.0447 13.5433 31.0347C13.3213 31.0247 13.11 30.9363 12.9469 30.7852C12.7838 30.6341 12.6796 30.4302 12.6527 30.2095C12.6257 29.9889 12.6779 29.7659 12.7998 29.58L18.6598 20.26C18.8808 19.9091 19.1722 19.6079 19.5155 19.3753C19.8588 19.1426 20.2466 18.9837 20.6544 18.9086C21.0622 18.8334 21.4812 18.8436 21.8849 18.9385C22.2886 19.0334 22.6682 19.211 22.9998 19.46L27.6798 22.96C27.8875 23.1158 28.1402 23.2 28.3998 23.2C28.6594 23.2 28.9121 23.1158 29.1198 22.96L35.4398 18.16C35.6158 18.0243 35.8342 17.9553 36.0563 17.9653C36.2783 17.9754 36.4897 18.0638 36.6527 18.2148C36.8158 18.3659 36.92 18.5698 36.9469 18.7905C36.9739 19.0111 36.9217 19.2342 36.7998 19.42Z" fill="#DBE4F1"/>
</svg>
