<svg width="722" height="144" viewBox="0 0 722 144" fill="none" xmlns="http://www.w3.org/2000/svg">
<path d="M13.7988 48.3359V74H9.14062V53.7676L2.9707 55.8066V52.0449L13.2715 48.3359H13.7988ZM27.0176 62.2227L23.3086 61.3262L24.7324 48.4062H38.8125V52.2559H28.582L27.9141 58.2324C28.2773 58.0098 28.8047 57.7871 29.4961 57.5645C30.1992 57.3301 30.9902 57.2129 31.8691 57.2129C33.0879 57.2129 34.1777 57.4121 35.1387 57.8105C36.0996 58.1973 36.9141 58.7598 37.582 59.498C38.2617 60.2363 38.7715 61.1387 39.1113 62.2051C39.4629 63.2598 39.6387 64.4551 39.6387 65.791C39.6387 66.9629 39.4629 68.0645 39.1113 69.0957C38.7715 70.1152 38.25 71.0234 37.5469 71.8203C36.8438 72.6055 35.959 73.2266 34.8926 73.6836C33.8262 74.1289 32.5723 74.3516 31.1309 74.3516C30.041 74.3516 28.9922 74.1934 27.9844 73.877C26.9883 73.5488 26.0918 73.0742 25.2949 72.4531C24.498 71.8203 23.8594 71.0469 23.3789 70.1328C22.9102 69.2188 22.6523 68.1699 22.6055 66.9863H27.1934C27.2754 67.7715 27.4863 68.4395 27.8262 68.9902C28.166 69.541 28.6113 69.9629 29.1621 70.2559C29.7246 70.5488 30.375 70.6953 31.1133 70.6953C31.7812 70.6953 32.3555 70.5723 32.8359 70.3262C33.3281 70.0684 33.7324 69.7109 34.0488 69.2539C34.3652 68.7969 34.5996 68.2578 34.752 67.6367C34.9043 67.0156 34.9805 66.3359 34.9805 65.5977C34.9805 64.8828 34.8926 64.2324 34.7168 63.6465C34.541 63.0488 34.2715 62.5332 33.9082 62.0996C33.5449 61.666 33.0879 61.332 32.5371 61.0977C31.998 60.8633 31.3652 60.7461 30.6387 60.7461C29.666 60.7461 28.916 60.8926 28.3887 61.1855C27.873 61.4785 27.416 61.8242 27.0176 62.2227ZM59.9238 59.0059V63.3125C59.9238 65.2812 59.7246 66.9629 59.3262 68.3574C58.9277 69.752 58.3535 70.8945 57.6035 71.7852C56.8535 72.6641 55.957 73.3145 54.9141 73.7363C53.8711 74.1465 52.7109 74.3516 51.4336 74.3516C50.4141 74.3516 49.4648 74.2227 48.5859 73.9648C47.707 73.6953 46.916 73.2852 46.2129 72.7344C45.5215 72.1719 44.9238 71.457 44.4199 70.5898C43.9277 69.7227 43.5469 68.6855 43.2773 67.4785C43.0195 66.2715 42.8906 64.8828 42.8906 63.3125V59.0059C42.8906 57.0371 43.0898 55.3613 43.4883 53.9785C43.8984 52.5957 44.4785 51.4648 45.2285 50.5859C45.9785 49.707 46.875 49.0684 47.918 48.6699C48.9609 48.2598 50.1211 48.0547 51.3984 48.0547C52.4297 48.0547 53.3789 48.1836 54.2461 48.4414C55.125 48.6992 55.9102 49.1035 56.6016 49.6543C57.3047 50.1934 57.9023 50.8965 58.3945 51.7637C58.8867 52.6191 59.2617 53.6504 59.5195 54.8574C59.7891 56.0527 59.9238 57.4355 59.9238 59.0059ZM55.2832 63.9453V58.3555C55.2832 57.3711 55.2246 56.5156 55.1074 55.7891C55.002 55.0508 54.8438 54.4238 54.6328 53.9082C54.4219 53.3926 54.1582 52.9766 53.8418 52.6602C53.5254 52.332 53.1621 52.0918 52.752 51.9395C52.3418 51.7871 51.8906 51.7109 51.3984 51.7109C50.7891 51.7109 50.2441 51.834 49.7637 52.0801C49.2832 52.3145 48.8789 52.6895 48.5508 53.2051C48.2227 53.7207 47.9707 54.4062 47.7949 55.2617C47.6309 56.1055 47.5488 57.1367 47.5488 58.3555V63.9453C47.5488 64.9297 47.6016 65.791 47.707 66.5293C47.8242 67.2676 47.9883 67.9004 48.1992 68.4277C48.4219 68.9551 48.6855 69.3887 48.9902 69.7285C49.3066 70.0566 49.6699 70.3027 50.0801 70.4668C50.4902 70.6191 50.9414 70.6953 51.4336 70.6953C52.0547 70.6953 52.5996 70.5723 53.0684 70.3262C53.5488 70.0801 53.9531 69.6934 54.2812 69.166C54.6094 68.627 54.8555 67.9297 55.0195 67.0742C55.1953 66.207 55.2832 65.1641 55.2832 63.9453ZM80.4902 59.0059V63.3125C80.4902 65.2812 80.291 66.9629 79.8926 68.3574C79.4941 69.752 78.9199 70.8945 78.1699 71.7852C77.4199 72.6641 76.5234 73.3145 75.4805 73.7363C74.4375 74.1465 73.2773 74.3516 72 74.3516C70.9805 74.3516 70.0312 74.2227 69.1523 73.9648C68.2734 73.6953 67.4824 73.2852 66.7793 72.7344C66.0879 72.1719 65.4902 71.457 64.9863 70.5898C64.4941 69.7227 64.1133 68.6855 63.8438 67.4785C63.5859 66.2715 63.457 64.8828 63.457 63.3125V59.0059C63.457 57.0371 63.6562 55.3613 64.0547 53.9785C64.4648 52.5957 65.0449 51.4648 65.7949 50.5859C66.5449 49.707 67.4414 49.0684 68.4844 48.6699C69.5273 48.2598 70.6875 48.0547 71.9648 48.0547C72.9961 48.0547 73.9453 48.1836 74.8125 48.4414C75.6914 48.6992 76.4766 49.1035 77.168 49.6543C77.8711 50.1934 78.4688 50.8965 78.9609 51.7637C79.4531 52.6191 79.8281 53.6504 80.0859 54.8574C80.3555 56.0527 80.4902 57.4355 80.4902 59.0059ZM75.8496 63.9453V58.3555C75.8496 57.3711 75.791 56.5156 75.6738 55.7891C75.5684 55.0508 75.4102 54.4238 75.1992 53.9082C74.9883 53.3926 74.7246 52.9766 74.4082 52.6602C74.0918 52.332 73.7285 52.0918 73.3184 51.9395C72.9082 51.7871 72.457 51.7109 71.9648 51.7109C71.3555 51.7109 70.8105 51.834 70.3301 52.0801C69.8496 52.3145 69.4453 52.6895 69.1172 53.2051C68.7891 53.7207 68.5371 54.4062 68.3613 55.2617C68.1973 56.1055 68.1152 57.1367 68.1152 58.3555V63.9453C68.1152 64.9297 68.168 65.791 68.2734 66.5293C68.3906 67.2676 68.5547 67.9004 68.7656 68.4277C68.9883 68.9551 69.252 69.3887 69.5566 69.7285C69.873 70.0566 70.2363 70.3027 70.6465 70.4668C71.0566 70.6191 71.5078 70.6953 72 70.6953C72.6211 70.6953 73.166 70.5723 73.6348 70.3262C74.1152 70.0801 74.5195 69.6934 74.8477 69.166C75.1758 68.627 75.4219 67.9297 75.5859 67.0742C75.7617 66.207 75.8496 65.1641 75.8496 63.9453ZM109.846 59.8496V63.9805H92.3027V59.8496H109.846ZM103.307 52.8008V71.4336H98.8594V52.8008H103.307Z" fill="#1B998B"/>
<path d="M30.875 95.2969H32.8281C32.7656 96.0417 32.5573 96.7057 32.2031 97.2891C31.849 97.8672 31.3516 98.3229 30.7109 98.6562C30.0703 98.9896 29.2917 99.1562 28.375 99.1562C27.6719 99.1562 27.0391 99.0312 26.4766 98.7812C25.9141 98.526 25.4323 98.1667 25.0312 97.7031C24.6302 97.2344 24.3229 96.6693 24.1094 96.0078C23.901 95.3464 23.7969 94.6068 23.7969 93.7891V92.8438C23.7969 92.026 23.9036 91.2865 24.1172 90.625C24.3359 89.9635 24.6484 89.3984 25.0547 88.9297C25.4609 88.4557 25.9479 88.0938 26.5156 87.8438C27.0885 87.5938 27.7318 87.4688 28.4453 87.4688C29.3516 87.4688 30.1172 87.6354 30.7422 87.9688C31.3672 88.3021 31.8516 88.763 32.1953 89.3516C32.5443 89.9401 32.7578 90.6146 32.8359 91.375H30.8828C30.8307 90.8854 30.7161 90.4661 30.5391 90.1172C30.3672 89.7682 30.112 89.5026 29.7734 89.3203C29.4349 89.1328 28.9922 89.0391 28.4453 89.0391C27.9974 89.0391 27.6068 89.1224 27.2734 89.2891C26.9401 89.4557 26.6615 89.7005 26.4375 90.0234C26.2135 90.3464 26.0443 90.7448 25.9297 91.2188C25.8203 91.6875 25.7656 92.224 25.7656 92.8281V93.7891C25.7656 94.362 25.8151 94.8828 25.9141 95.3516C26.0182 95.8151 26.1745 96.2135 26.3828 96.5469C26.5964 96.8802 26.8672 97.138 27.1953 97.3203C27.5234 97.5026 27.9167 97.5938 28.375 97.5938C28.9323 97.5938 29.3828 97.5052 29.7266 97.3281C30.0755 97.151 30.3385 96.8932 30.5156 96.5547C30.6979 96.2109 30.8177 95.7917 30.875 95.2969ZM40.9922 87.625H42.9453V95.2266C42.9453 96.0911 42.7578 96.8151 42.3828 97.3984C42.0078 97.9818 41.4974 98.4219 40.8516 98.7188C40.2109 99.0104 39.4948 99.1562 38.7031 99.1562C37.8854 99.1562 37.1562 99.0104 36.5156 98.7188C35.875 98.4219 35.3698 97.9818 35 97.3984C34.6354 96.8151 34.4531 96.0911 34.4531 95.2266V87.625H36.4062V95.2266C36.4062 95.7734 36.5 96.224 36.6875 96.5781C36.875 96.9271 37.1406 97.1849 37.4844 97.3516C37.8281 97.5182 38.2344 97.6016 38.7031 97.6016C39.1719 97.6016 39.5755 97.5182 39.9141 97.3516C40.2578 97.1849 40.5234 96.9271 40.7109 96.5781C40.8984 96.224 40.9922 95.7734 40.9922 95.2266V87.625ZM45.0781 87.625H49.1016C49.9661 87.625 50.7031 87.7552 51.3125 88.0156C51.9219 88.276 52.388 88.6615 52.7109 89.1719C53.0391 89.6771 53.2031 90.3021 53.2031 91.0469C53.2031 91.6146 53.099 92.1146 52.8906 92.5469C52.6823 92.9792 52.388 93.3438 52.0078 93.6406C51.6276 93.9323 51.1745 94.1589 50.6484 94.3203L50.0547 94.6094H46.4375L46.4219 93.0547H49.1328C49.6016 93.0547 49.9922 92.9714 50.3047 92.8047C50.6172 92.638 50.8516 92.4115 51.0078 92.125C51.1693 91.8333 51.25 91.5052 51.25 91.1406C51.25 90.7448 51.1719 90.401 51.0156 90.1094C50.8646 89.8125 50.6302 89.5859 50.3125 89.4297C49.9948 89.2682 49.5911 89.1875 49.1016 89.1875H47.0391V99H45.0781V87.625ZM51.5703 99L48.8984 93.8906L50.9531 93.8828L53.6641 98.8984V99H51.5703ZM61.1406 96.0703C61.1406 95.8359 61.1042 95.6276 61.0312 95.4453C60.9635 95.263 60.8411 95.0964 60.6641 94.9453C60.487 94.7943 60.237 94.6484 59.9141 94.5078C59.5964 94.362 59.1901 94.2135 58.6953 94.0625C58.1536 93.8958 57.6536 93.7109 57.1953 93.5078C56.7422 93.2995 56.3464 93.0599 56.0078 92.7891C55.6693 92.513 55.4062 92.1979 55.2188 91.8438C55.0312 91.4844 54.9375 91.0703 54.9375 90.6016C54.9375 90.138 55.0339 89.7161 55.2266 89.3359C55.4245 88.9557 55.7031 88.6276 56.0625 88.3516C56.4271 88.0703 56.8568 87.8542 57.3516 87.7031C57.8464 87.5469 58.3932 87.4688 58.9922 87.4688C59.8359 87.4688 60.5625 87.625 61.1719 87.9375C61.7865 88.25 62.2578 88.6693 62.5859 89.1953C62.9193 89.7214 63.0859 90.3021 63.0859 90.9375H61.1406C61.1406 90.5625 61.0599 90.2318 60.8984 89.9453C60.7422 89.6536 60.5026 89.4245 60.1797 89.2578C59.862 89.0911 59.4583 89.0078 58.9688 89.0078C58.5052 89.0078 58.1198 89.0781 57.8125 89.2188C57.5052 89.3594 57.276 89.5495 57.125 89.7891C56.974 90.0286 56.8984 90.2995 56.8984 90.6016C56.8984 90.8151 56.9479 91.0104 57.0469 91.1875C57.1458 91.3594 57.2969 91.5208 57.5 91.6719C57.7031 91.8177 57.9583 91.9557 58.2656 92.0859C58.5729 92.2161 58.9349 92.3411 59.3516 92.4609C59.9818 92.6484 60.5312 92.8568 61 93.0859C61.4688 93.3099 61.8594 93.5651 62.1719 93.8516C62.4844 94.138 62.7188 94.4635 62.875 94.8281C63.0312 95.1875 63.1094 95.5964 63.1094 96.0547C63.1094 96.5339 63.013 96.9661 62.8203 97.3516C62.6276 97.7318 62.3516 98.0573 61.9922 98.3281C61.638 98.5938 61.2109 98.7995 60.7109 98.9453C60.2161 99.0859 59.6641 99.1562 59.0547 99.1562C58.5078 99.1562 57.9688 99.0833 57.4375 98.9375C56.9115 98.7917 56.4323 98.5703 56 98.2734C55.5677 97.9714 55.224 97.5964 54.9688 97.1484C54.7135 96.6953 54.5859 96.1667 54.5859 95.5625H56.5469C56.5469 95.9323 56.6094 96.2474 56.7344 96.5078C56.8646 96.7682 57.0443 96.9818 57.2734 97.1484C57.5026 97.3099 57.7682 97.4297 58.0703 97.5078C58.3776 97.5859 58.7057 97.625 59.0547 97.625C59.513 97.625 59.8958 97.5599 60.2031 97.4297C60.5156 97.2995 60.75 97.1172 60.9062 96.8828C61.0625 96.6484 61.1406 96.3776 61.1406 96.0703ZM71.2266 87.625H73.1797V95.2266C73.1797 96.0911 72.9922 96.8151 72.6172 97.3984C72.2422 97.9818 71.7318 98.4219 71.0859 98.7188C70.4453 99.0104 69.7292 99.1562 68.9375 99.1562C68.1198 99.1562 67.3906 99.0104 66.75 98.7188C66.1094 98.4219 65.6042 97.9818 65.2344 97.3984C64.8698 96.8151 64.6875 96.0911 64.6875 95.2266V87.625H66.6406V95.2266C66.6406 95.7734 66.7344 96.224 66.9219 96.5781C67.1094 96.9271 67.375 97.1849 67.7188 97.3516C68.0625 97.5182 68.4688 97.6016 68.9375 97.6016C69.4062 97.6016 69.8099 97.5182 70.1484 97.3516C70.4922 97.1849 70.7578 96.9271 70.9453 96.5781C71.1328 96.224 71.2266 95.7734 71.2266 95.2266V87.625ZM75.3125 87.625H79.3359C80.2005 87.625 80.9375 87.7552 81.5469 88.0156C82.1562 88.276 82.6224 88.6615 82.9453 89.1719C83.2734 89.6771 83.4375 90.3021 83.4375 91.0469C83.4375 91.6146 83.3333 92.1146 83.125 92.5469C82.9167 92.9792 82.6224 93.3438 82.2422 93.6406C81.862 93.9323 81.4089 94.1589 80.8828 94.3203L80.2891 94.6094H76.6719L76.6562 93.0547H79.3672C79.8359 93.0547 80.2266 92.9714 80.5391 92.8047C80.8516 92.638 81.0859 92.4115 81.2422 92.125C81.4036 91.8333 81.4844 91.5052 81.4844 91.1406C81.4844 90.7448 81.4062 90.401 81.25 90.1094C81.099 89.8125 80.8646 89.5859 80.5469 89.4297C80.2292 89.2682 79.8255 89.1875 79.3359 89.1875H77.2734V99H75.3125V87.625ZM81.8047 99L79.1328 93.8906L81.1875 93.8828L83.8984 98.8984V99H81.8047ZM87.4844 87.625V99H85.5234V87.625H87.4844Z" fill="#1B998B"/>
<path d="M156.75 69.75C156.75 69.75 146.25 69.75 146.25 72C146.25 74.25 156.75 74.25 156.75 74.25V76.8398C156.75 78.1448 158.302 78.8273 159.263 77.946L164.543 73.1055C164.696 72.965 164.819 72.7942 164.903 72.6039C164.986 72.4135 165.029 72.2079 165.029 72C165.029 71.7921 164.986 71.5865 164.903 71.3962C164.819 71.2059 164.696 71.035 164.543 70.8945L159.263 66.054C158.302 65.172 156.75 65.8545 156.75 67.1595V69.75Z" stroke="#1B998B" stroke-width="1.25" stroke-linecap="round" stroke-linejoin="round"/>
<path d="M225.117 64.666V68.3223H206.678L206.484 65.5098L217.33 48.4062H221.039L217.031 55.209L211.213 64.666H225.117ZM222.076 48.4062V74H217.418V48.4062H222.076ZM244.857 59.0059V63.3125C244.857 65.2812 244.658 66.9629 244.26 68.3574C243.861 69.752 243.287 70.8945 242.537 71.7852C241.787 72.6641 240.891 73.3145 239.848 73.7363C238.805 74.1465 237.645 74.3516 236.367 74.3516C235.348 74.3516 234.398 74.2227 233.52 73.9648C232.641 73.6953 231.85 73.2852 231.146 72.7344C230.455 72.1719 229.857 71.457 229.354 70.5898C228.861 69.7227 228.48 68.6855 228.211 67.4785C227.953 66.2715 227.824 64.8828 227.824 63.3125V59.0059C227.824 57.0371 228.023 55.3613 228.422 53.9785C228.832 52.5957 229.412 51.4648 230.162 50.5859C230.912 49.707 231.809 49.0684 232.852 48.6699C233.895 48.2598 235.055 48.0547 236.332 48.0547C237.363 48.0547 238.312 48.1836 239.18 48.4414C240.059 48.6992 240.844 49.1035 241.535 49.6543C242.238 50.1934 242.836 50.8965 243.328 51.7637C243.82 52.6191 244.195 53.6504 244.453 54.8574C244.723 56.0527 244.857 57.4355 244.857 59.0059ZM240.217 63.9453V58.3555C240.217 57.3711 240.158 56.5156 240.041 55.7891C239.936 55.0508 239.777 54.4238 239.566 53.9082C239.355 53.3926 239.092 52.9766 238.775 52.6602C238.459 52.332 238.096 52.0918 237.686 51.9395C237.275 51.7871 236.824 51.7109 236.332 51.7109C235.723 51.7109 235.178 51.834 234.697 52.0801C234.217 52.3145 233.812 52.6895 233.484 53.2051C233.156 53.7207 232.904 54.4062 232.729 55.2617C232.564 56.1055 232.482 57.1367 232.482 58.3555V63.9453C232.482 64.9297 232.535 65.791 232.641 66.5293C232.758 67.2676 232.922 67.9004 233.133 68.4277C233.355 68.9551 233.619 69.3887 233.924 69.7285C234.24 70.0566 234.604 70.3027 235.014 70.4668C235.424 70.6191 235.875 70.6953 236.367 70.6953C236.988 70.6953 237.533 70.5723 238.002 70.3262C238.482 70.0801 238.887 69.6934 239.215 69.166C239.543 68.627 239.789 67.9297 239.953 67.0742C240.129 66.207 240.217 65.1641 240.217 63.9453ZM265.424 59.0059V63.3125C265.424 65.2812 265.225 66.9629 264.826 68.3574C264.428 69.752 263.854 70.8945 263.104 71.7852C262.354 72.6641 261.457 73.3145 260.414 73.7363C259.371 74.1465 258.211 74.3516 256.934 74.3516C255.914 74.3516 254.965 74.2227 254.086 73.9648C253.207 73.6953 252.416 73.2852 251.713 72.7344C251.021 72.1719 250.424 71.457 249.92 70.5898C249.428 69.7227 249.047 68.6855 248.777 67.4785C248.52 66.2715 248.391 64.8828 248.391 63.3125V59.0059C248.391 57.0371 248.59 55.3613 248.988 53.9785C249.398 52.5957 249.979 51.4648 250.729 50.5859C251.479 49.707 252.375 49.0684 253.418 48.6699C254.461 48.2598 255.621 48.0547 256.898 48.0547C257.93 48.0547 258.879 48.1836 259.746 48.4414C260.625 48.6992 261.41 49.1035 262.102 49.6543C262.805 50.1934 263.402 50.8965 263.895 51.7637C264.387 52.6191 264.762 53.6504 265.02 54.8574C265.289 56.0527 265.424 57.4355 265.424 59.0059ZM260.783 63.9453V58.3555C260.783 57.3711 260.725 56.5156 260.607 55.7891C260.502 55.0508 260.344 54.4238 260.133 53.9082C259.922 53.3926 259.658 52.9766 259.342 52.6602C259.025 52.332 258.662 52.0918 258.252 51.9395C257.842 51.7871 257.391 51.7109 256.898 51.7109C256.289 51.7109 255.744 51.834 255.264 52.0801C254.783 52.3145 254.379 52.6895 254.051 53.2051C253.723 53.7207 253.471 54.4062 253.295 55.2617C253.131 56.1055 253.049 57.1367 253.049 58.3555V63.9453C253.049 64.9297 253.102 65.791 253.207 66.5293C253.324 67.2676 253.488 67.9004 253.699 68.4277C253.922 68.9551 254.186 69.3887 254.49 69.7285C254.807 70.0566 255.17 70.3027 255.58 70.4668C255.99 70.6191 256.441 70.6953 256.934 70.6953C257.555 70.6953 258.1 70.5723 258.568 70.3262C259.049 70.0801 259.453 69.6934 259.781 69.166C260.109 68.627 260.355 67.9297 260.52 67.0742C260.695 66.207 260.783 65.1641 260.783 63.9453ZM294.779 59.8496V63.9805H277.236V59.8496H294.779ZM288.24 52.8008V71.4336H283.793V52.8008H288.24Z" fill="#1B998B"/>
<path d="M203.25 87.625V99H201.289V87.625H203.25ZM214.711 87.625V99H212.75L207.648 90.8516V99H205.688V87.625H207.648L212.766 95.7891V87.625H214.711ZM223.031 96.0703C223.031 95.8359 222.995 95.6276 222.922 95.4453C222.854 95.263 222.732 95.0964 222.555 94.9453C222.378 94.7943 222.128 94.6484 221.805 94.5078C221.487 94.362 221.081 94.2135 220.586 94.0625C220.044 93.8958 219.544 93.7109 219.086 93.5078C218.633 93.2995 218.237 93.0599 217.898 92.7891C217.56 92.513 217.297 92.1979 217.109 91.8438C216.922 91.4844 216.828 91.0703 216.828 90.6016C216.828 90.138 216.924 89.7161 217.117 89.3359C217.315 88.9557 217.594 88.6276 217.953 88.3516C218.318 88.0703 218.747 87.8542 219.242 87.7031C219.737 87.5469 220.284 87.4688 220.883 87.4688C221.727 87.4688 222.453 87.625 223.062 87.9375C223.677 88.25 224.148 88.6693 224.477 89.1953C224.81 89.7214 224.977 90.3021 224.977 90.9375H223.031C223.031 90.5625 222.951 90.2318 222.789 89.9453C222.633 89.6536 222.393 89.4245 222.07 89.2578C221.753 89.0911 221.349 89.0078 220.859 89.0078C220.396 89.0078 220.01 89.0781 219.703 89.2188C219.396 89.3594 219.167 89.5495 219.016 89.7891C218.865 90.0286 218.789 90.2995 218.789 90.6016C218.789 90.8151 218.839 91.0104 218.938 91.1875C219.036 91.3594 219.188 91.5208 219.391 91.6719C219.594 91.8177 219.849 91.9557 220.156 92.0859C220.464 92.2161 220.826 92.3411 221.242 92.4609C221.872 92.6484 222.422 92.8568 222.891 93.0859C223.359 93.3099 223.75 93.5651 224.062 93.8516C224.375 94.138 224.609 94.4635 224.766 94.8281C224.922 95.1875 225 95.5964 225 96.0547C225 96.5339 224.904 96.9661 224.711 97.3516C224.518 97.7318 224.242 98.0573 223.883 98.3281C223.529 98.5938 223.102 98.7995 222.602 98.9453C222.107 99.0859 221.555 99.1562 220.945 99.1562C220.398 99.1562 219.859 99.0833 219.328 98.9375C218.802 98.7917 218.323 98.5703 217.891 98.2734C217.458 97.9714 217.115 97.5964 216.859 97.1484C216.604 96.6953 216.477 96.1667 216.477 95.5625H218.438C218.438 95.9323 218.5 96.2474 218.625 96.5078C218.755 96.7682 218.935 96.9818 219.164 97.1484C219.393 97.3099 219.659 97.4297 219.961 97.5078C220.268 97.5859 220.596 97.625 220.945 97.625C221.404 97.625 221.786 97.5599 222.094 97.4297C222.406 97.2995 222.641 97.1172 222.797 96.8828C222.953 96.6484 223.031 96.3776 223.031 96.0703ZM231.414 87.625V99H229.469V87.625H231.414ZM234.984 87.625V89.1875H225.93V87.625H234.984ZM236.484 87.625H240.508C241.372 87.625 242.109 87.7552 242.719 88.0156C243.328 88.276 243.794 88.6615 244.117 89.1719C244.445 89.6771 244.609 90.3021 244.609 91.0469C244.609 91.6146 244.505 92.1146 244.297 92.5469C244.089 92.9792 243.794 93.3438 243.414 93.6406C243.034 93.9323 242.581 94.1589 242.055 94.3203L241.461 94.6094H237.844L237.828 93.0547H240.539C241.008 93.0547 241.398 92.9714 241.711 92.8047C242.023 92.638 242.258 92.4115 242.414 92.125C242.576 91.8333 242.656 91.5052 242.656 91.1406C242.656 90.7448 242.578 90.401 242.422 90.1094C242.271 89.8125 242.036 89.5859 241.719 89.4297C241.401 89.2682 240.997 89.1875 240.508 89.1875H238.445V99H236.484V87.625ZM242.977 99L240.305 93.8906L242.359 93.8828L245.07 98.8984V99H242.977ZM252.945 87.625H254.898V95.2266C254.898 96.0911 254.711 96.8151 254.336 97.3984C253.961 97.9818 253.451 98.4219 252.805 98.7188C252.164 99.0104 251.448 99.1562 250.656 99.1562C249.839 99.1562 249.109 99.0104 248.469 98.7188C247.828 98.4219 247.323 97.9818 246.953 97.3984C246.589 96.8151 246.406 96.0911 246.406 95.2266V87.625H248.359V95.2266C248.359 95.7734 248.453 96.224 248.641 96.5781C248.828 96.9271 249.094 97.1849 249.438 97.3516C249.781 97.5182 250.188 97.6016 250.656 97.6016C251.125 97.6016 251.529 97.5182 251.867 97.3516C252.211 97.1849 252.477 96.9271 252.664 96.5781C252.852 96.224 252.945 95.7734 252.945 95.2266V87.625ZM263.75 95.2969H265.703C265.641 96.0417 265.432 96.7057 265.078 97.2891C264.724 97.8672 264.227 98.3229 263.586 98.6562C262.945 98.9896 262.167 99.1562 261.25 99.1562C260.547 99.1562 259.914 99.0312 259.352 98.7812C258.789 98.526 258.307 98.1667 257.906 97.7031C257.505 97.2344 257.198 96.6693 256.984 96.0078C256.776 95.3464 256.672 94.6068 256.672 93.7891V92.8438C256.672 92.026 256.779 91.2865 256.992 90.625C257.211 89.9635 257.523 89.3984 257.93 88.9297C258.336 88.4557 258.823 88.0938 259.391 87.8438C259.964 87.5938 260.607 87.4688 261.32 87.4688C262.227 87.4688 262.992 87.6354 263.617 87.9688C264.242 88.3021 264.727 88.763 265.07 89.3516C265.419 89.9401 265.633 90.6146 265.711 91.375H263.758C263.706 90.8854 263.591 90.4661 263.414 90.1172C263.242 89.7682 262.987 89.5026 262.648 89.3203C262.31 89.1328 261.867 89.0391 261.32 89.0391C260.872 89.0391 260.482 89.1224 260.148 89.2891C259.815 89.4557 259.536 89.7005 259.312 90.0234C259.089 90.3464 258.919 90.7448 258.805 91.2188C258.695 91.6875 258.641 92.224 258.641 92.8281V93.7891C258.641 94.362 258.69 94.8828 258.789 95.3516C258.893 95.8151 259.049 96.2135 259.258 96.5469C259.471 96.8802 259.742 97.138 260.07 97.3203C260.398 97.5026 260.792 97.5938 261.25 97.5938C261.807 97.5938 262.258 97.5052 262.602 97.3281C262.951 97.151 263.214 96.8932 263.391 96.5547C263.573 96.2109 263.693 95.7917 263.75 95.2969ZM271.93 87.625V99H269.984V87.625H271.93ZM275.5 87.625V89.1875H266.445V87.625H275.5ZM285.852 93V93.625C285.852 94.4844 285.74 95.2552 285.516 95.9375C285.292 96.6198 284.971 97.2005 284.555 97.6797C284.143 98.1589 283.648 98.526 283.07 98.7812C282.492 99.0312 281.852 99.1562 281.148 99.1562C280.451 99.1562 279.812 99.0312 279.234 98.7812C278.661 98.526 278.164 98.1589 277.742 97.6797C277.32 97.2005 276.992 96.6198 276.758 95.9375C276.529 95.2552 276.414 94.4844 276.414 93.625V93C276.414 92.1406 276.529 91.3724 276.758 90.6953C276.987 90.013 277.31 89.4323 277.727 88.9531C278.148 88.4688 278.646 88.1016 279.219 87.8516C279.797 87.5964 280.435 87.4688 281.133 87.4688C281.836 87.4688 282.477 87.5964 283.055 87.8516C283.633 88.1016 284.13 88.4688 284.547 88.9531C284.964 89.4323 285.284 90.013 285.508 90.6953C285.737 91.3724 285.852 92.1406 285.852 93ZM283.891 93.625V92.9844C283.891 92.349 283.828 91.7891 283.703 91.3047C283.583 90.8151 283.404 90.4062 283.164 90.0781C282.93 89.7448 282.641 89.4948 282.297 89.3281C281.953 89.1562 281.565 89.0703 281.133 89.0703C280.701 89.0703 280.315 89.1562 279.977 89.3281C279.638 89.4948 279.349 89.7448 279.109 90.0781C278.875 90.4062 278.695 90.8151 278.57 91.3047C278.445 91.7891 278.383 92.349 278.383 92.9844V93.625C278.383 94.2604 278.445 94.8229 278.57 95.3125C278.695 95.8021 278.878 96.2161 279.117 96.5547C279.362 96.888 279.654 97.1406 279.992 97.3125C280.331 97.4792 280.716 97.5625 281.148 97.5625C281.586 97.5625 281.974 97.4792 282.312 97.3125C282.651 97.1406 282.938 96.888 283.172 96.5547C283.406 96.2161 283.583 95.8021 283.703 95.3125C283.828 94.8229 283.891 94.2604 283.891 93.625ZM287.812 87.625H291.836C292.701 87.625 293.438 87.7552 294.047 88.0156C294.656 88.276 295.122 88.6615 295.445 89.1719C295.773 89.6771 295.938 90.3021 295.938 91.0469C295.938 91.6146 295.833 92.1146 295.625 92.5469C295.417 92.9792 295.122 93.3438 294.742 93.6406C294.362 93.9323 293.909 94.1589 293.383 94.3203L292.789 94.6094H289.172L289.156 93.0547H291.867C292.336 93.0547 292.727 92.9714 293.039 92.8047C293.352 92.638 293.586 92.4115 293.742 92.125C293.904 91.8333 293.984 91.5052 293.984 91.1406C293.984 90.7448 293.906 90.401 293.75 90.1094C293.599 89.8125 293.365 89.5859 293.047 89.4297C292.729 89.2682 292.326 89.1875 291.836 89.1875H289.773V99H287.812V87.625ZM294.305 99L291.633 93.8906L293.688 93.8828L296.398 98.8984V99H294.305ZM299.984 87.625V99H298.023V87.625H299.984Z" fill="#1B998B"/>
<path d="M346.75 69.75C346.75 69.75 336.25 69.75 336.25 72C336.25 74.25 346.75 74.25 346.75 74.25V76.8398C346.75 78.1448 348.302 78.8273 349.263 77.946L354.543 73.1055C354.696 72.965 354.819 72.7942 354.903 72.6039C354.986 72.4135 355.029 72.2079 355.029 72C355.029 71.7921 354.986 71.5865 354.903 71.3962C354.819 71.2059 354.696 71.035 354.543 70.8945L349.263 66.054C348.302 65.172 346.75 65.8545 346.75 67.1595V69.75Z" stroke="#1B998B" stroke-width="1.25" stroke-linecap="round" stroke-linejoin="round"/>
<path d="M403.799 48.3359V74H399.141V53.7676L392.971 55.8066V52.0449L403.271 48.3359H403.799ZM425.332 48.1953H425.965V51.9395H425.666C424.248 51.9395 423 52.1562 421.922 52.5898C420.855 53.0234 419.965 53.6328 419.25 54.418C418.547 55.1914 418.014 56.1113 417.65 57.1777C417.287 58.2324 417.105 59.3867 417.105 60.6406V64.7891C417.105 65.7617 417.205 66.6172 417.404 67.3555C417.615 68.082 417.902 68.6973 418.266 69.2012C418.641 69.6934 419.074 70.0625 419.566 70.3086C420.07 70.5547 420.621 70.6777 421.219 70.6777C421.816 70.6777 422.355 70.5547 422.836 70.3086C423.316 70.0625 423.727 69.7168 424.066 69.2715C424.418 68.8145 424.682 68.2812 424.857 67.6719C425.045 67.0625 425.139 66.3945 425.139 65.668C425.139 64.9531 425.051 64.291 424.875 63.6816C424.699 63.0723 424.441 62.5391 424.102 62.082C423.762 61.6133 423.34 61.2559 422.836 61.0098C422.344 60.752 421.781 60.623 421.148 60.623C420.328 60.623 419.596 60.8164 418.951 61.2031C418.307 61.5781 417.797 62.0703 417.422 62.6797C417.047 63.2891 416.842 63.9336 416.807 64.6133L415.242 63.8398C415.301 62.8438 415.512 61.9297 415.875 61.0977C416.25 60.2656 416.748 59.5391 417.369 58.918C418.002 58.2969 418.746 57.8164 419.602 57.4766C420.469 57.1367 421.43 56.9668 422.484 56.9668C423.703 56.9668 424.77 57.2012 425.684 57.6699C426.598 58.127 427.354 58.7539 427.951 59.5508C428.561 60.3477 429.018 61.2676 429.322 62.3105C429.627 63.3418 429.779 64.4316 429.779 65.5801C429.779 66.8105 429.58 67.959 429.182 69.0254C428.795 70.0918 428.232 71.0234 427.494 71.8203C426.756 72.6172 425.865 73.2383 424.822 73.6836C423.779 74.1289 422.607 74.3516 421.307 74.3516C419.936 74.3516 418.705 74.0938 417.615 73.5781C416.537 73.0625 415.611 72.3477 414.838 71.4336C414.064 70.5195 413.473 69.4531 413.062 68.2344C412.652 67.0156 412.447 65.6973 412.447 64.2793V62.416C412.447 60.4121 412.723 58.5488 413.273 56.8262C413.824 55.1035 414.639 53.5977 415.717 52.3086C416.807 51.0078 418.154 50 419.76 49.2852C421.365 48.5586 423.223 48.1953 425.332 48.1953ZM449.924 59.0059V63.3125C449.924 65.2812 449.725 66.9629 449.326 68.3574C448.928 69.752 448.354 70.8945 447.604 71.7852C446.854 72.6641 445.957 73.3145 444.914 73.7363C443.871 74.1465 442.711 74.3516 441.434 74.3516C440.414 74.3516 439.465 74.2227 438.586 73.9648C437.707 73.6953 436.916 73.2852 436.213 72.7344C435.521 72.1719 434.924 71.457 434.42 70.5898C433.928 69.7227 433.547 68.6855 433.277 67.4785C433.02 66.2715 432.891 64.8828 432.891 63.3125V59.0059C432.891 57.0371 433.09 55.3613 433.488 53.9785C433.898 52.5957 434.479 51.4648 435.229 50.5859C435.979 49.707 436.875 49.0684 437.918 48.6699C438.961 48.2598 440.121 48.0547 441.398 48.0547C442.43 48.0547 443.379 48.1836 444.246 48.4414C445.125 48.6992 445.91 49.1035 446.602 49.6543C447.305 50.1934 447.902 50.8965 448.395 51.7637C448.887 52.6191 449.262 53.6504 449.52 54.8574C449.789 56.0527 449.924 57.4355 449.924 59.0059ZM445.283 63.9453V58.3555C445.283 57.3711 445.225 56.5156 445.107 55.7891C445.002 55.0508 444.844 54.4238 444.633 53.9082C444.422 53.3926 444.158 52.9766 443.842 52.6602C443.525 52.332 443.162 52.0918 442.752 51.9395C442.342 51.7871 441.891 51.7109 441.398 51.7109C440.789 51.7109 440.244 51.834 439.764 52.0801C439.283 52.3145 438.879 52.6895 438.551 53.2051C438.223 53.7207 437.971 54.4062 437.795 55.2617C437.631 56.1055 437.549 57.1367 437.549 58.3555V63.9453C437.549 64.9297 437.602 65.791 437.707 66.5293C437.824 67.2676 437.988 67.9004 438.199 68.4277C438.422 68.9551 438.686 69.3887 438.99 69.7285C439.307 70.0566 439.67 70.3027 440.08 70.4668C440.49 70.6191 440.941 70.6953 441.434 70.6953C442.055 70.6953 442.6 70.5723 443.068 70.3262C443.549 70.0801 443.953 69.6934 444.281 69.166C444.609 68.627 444.855 67.9297 445.02 67.0742C445.195 66.207 445.283 65.1641 445.283 63.9453ZM479.279 59.8496V63.9805H461.736V59.8496H479.279ZM472.74 52.8008V71.4336H468.293V52.8008H472.74Z" fill="#1B998B"/>
<path d="M399.477 94.7578H396.516V93.2031H399.477C399.992 93.2031 400.409 93.1198 400.727 92.9531C401.044 92.7865 401.276 92.5573 401.422 92.2656C401.573 91.9688 401.648 91.6302 401.648 91.25C401.648 90.8906 401.573 90.5547 401.422 90.2422C401.276 89.9245 401.044 89.6693 400.727 89.4766C400.409 89.2839 399.992 89.1875 399.477 89.1875H397.117V99H395.156V87.625H399.477C400.357 87.625 401.104 87.7812 401.719 88.0938C402.339 88.401 402.81 88.8281 403.133 89.375C403.456 89.9167 403.617 90.5365 403.617 91.2344C403.617 91.9688 403.456 92.599 403.133 93.125C402.81 93.651 402.339 94.0547 401.719 94.3359C401.104 94.6172 400.357 94.7578 399.477 94.7578ZM408.617 89.1406L405.219 99H403.164L407.445 87.625H408.758L408.617 89.1406ZM411.461 99L408.055 89.1406L407.906 87.625H409.227L413.523 99H411.461ZM411.297 94.7812V96.3359H405.109V94.7812H411.297ZM414.797 87.625H418.82C419.685 87.625 420.422 87.7552 421.031 88.0156C421.641 88.276 422.107 88.6615 422.43 89.1719C422.758 89.6771 422.922 90.3021 422.922 91.0469C422.922 91.6146 422.818 92.1146 422.609 92.5469C422.401 92.9792 422.107 93.3438 421.727 93.6406C421.346 93.9323 420.893 94.1589 420.367 94.3203L419.773 94.6094H416.156L416.141 93.0547H418.852C419.32 93.0547 419.711 92.9714 420.023 92.8047C420.336 92.638 420.57 92.4115 420.727 92.125C420.888 91.8333 420.969 91.5052 420.969 91.1406C420.969 90.7448 420.891 90.401 420.734 90.1094C420.583 89.8125 420.349 89.5859 420.031 89.4297C419.714 89.2682 419.31 89.1875 418.82 89.1875H416.758V99H414.797V87.625ZM421.289 99L418.617 93.8906L420.672 93.8828L423.383 98.8984V99H421.289ZM429.023 87.625V99H427.078V87.625H429.023ZM432.594 87.625V89.1875H423.539V87.625H432.594ZM441.539 97.4453V99H435.5V97.4453H441.539ZM436.055 87.625V99H434.094V87.625H436.055ZM440.75 92.375V93.9062H435.5V92.375H440.75ZM441.5 87.625V89.1875H435.5V87.625H441.5ZM452.164 87.625V99H450.203L445.102 90.8516V99H443.141V87.625H445.102L450.219 95.7891V87.625H452.164ZM461.945 97.4453V99H455.906V97.4453H461.945ZM456.461 87.625V99H454.5V87.625H456.461ZM461.156 92.375V93.9062H455.906V92.375H461.156ZM461.906 87.625V89.1875H455.906V87.625H461.906ZM463.547 87.625H467.57C468.435 87.625 469.172 87.7552 469.781 88.0156C470.391 88.276 470.857 88.6615 471.18 89.1719C471.508 89.6771 471.672 90.3021 471.672 91.0469C471.672 91.6146 471.568 92.1146 471.359 92.5469C471.151 92.9792 470.857 93.3438 470.477 93.6406C470.096 93.9323 469.643 94.1589 469.117 94.3203L468.523 94.6094H464.906L464.891 93.0547H467.602C468.07 93.0547 468.461 92.9714 468.773 92.8047C469.086 92.638 469.32 92.4115 469.477 92.125C469.638 91.8333 469.719 91.5052 469.719 91.1406C469.719 90.7448 469.641 90.401 469.484 90.1094C469.333 89.8125 469.099 89.5859 468.781 89.4297C468.464 89.2682 468.06 89.1875 467.57 89.1875H465.508V99H463.547V87.625ZM470.039 99L467.367 93.8906L469.422 93.8828L472.133 98.8984V99H470.039ZM475.719 87.625V99H473.758V87.625H475.719Z" fill="#1B998B"/>
<path d="M525.75 69.75C525.75 69.75 515.25 69.75 515.25 72C515.25 74.25 525.75 74.25 525.75 74.25V76.8398C525.75 78.1448 527.302 78.8273 528.263 77.946L533.543 73.1055C533.696 72.965 533.819 72.7942 533.903 72.6039C533.986 72.4135 534.029 72.2079 534.029 72C534.029 71.7921 533.986 71.5865 533.903 71.3962C533.819 71.2059 533.696 71.035 533.543 70.8945L528.263 66.054C527.302 65.172 525.75 65.8545 525.75 67.1595V69.75Z" stroke="#1B998B" stroke-width="1.25" stroke-linecap="round" stroke-linejoin="round"/>
<path d="M575.926 59.1465H578.545C579.471 59.1465 580.232 58.9883 580.83 58.6719C581.439 58.3438 581.891 57.8984 582.184 57.3359C582.488 56.7617 582.641 56.0996 582.641 55.3496C582.641 54.6113 582.506 53.9727 582.236 53.4336C581.967 52.8828 581.557 52.4609 581.006 52.168C580.467 51.8633 579.775 51.7109 578.932 51.7109C578.252 51.7109 577.625 51.8457 577.051 52.1152C576.488 52.3848 576.037 52.7715 575.697 53.2754C575.369 53.7676 575.205 54.3594 575.205 55.0508H570.547C570.547 53.668 570.91 52.4551 571.637 51.4121C572.375 50.3574 573.371 49.5312 574.625 48.9336C575.879 48.3359 577.279 48.0371 578.826 48.0371C580.514 48.0371 581.99 48.3184 583.256 48.8809C584.533 49.4316 585.523 50.2461 586.227 51.3242C586.941 52.4023 587.299 53.7383 587.299 55.332C587.299 56.0938 587.117 56.8555 586.754 57.6172C586.402 58.3672 585.881 59.0469 585.189 59.6562C584.51 60.2539 583.672 60.7402 582.676 61.1152C581.691 61.4785 580.561 61.6602 579.283 61.6602H575.926V59.1465ZM575.926 62.7324V60.2539H579.283C580.725 60.2539 581.973 60.4238 583.027 60.7637C584.094 61.0918 584.973 61.5605 585.664 62.1699C586.355 62.7676 586.865 63.4648 587.193 64.2617C587.533 65.0586 587.703 65.9141 587.703 66.8281C587.703 68.0234 587.48 69.0898 587.035 70.0273C586.59 70.9531 585.963 71.7383 585.154 72.3828C584.357 73.0273 583.42 73.5195 582.342 73.8594C581.264 74.1875 580.098 74.3516 578.844 74.3516C577.754 74.3516 576.693 74.2051 575.662 73.9121C574.643 73.6074 573.723 73.1562 572.902 72.5586C572.082 71.9492 571.432 71.1875 570.951 70.2734C570.471 69.3477 570.23 68.2754 570.23 67.0566H574.889C574.889 67.7598 575.059 68.3867 575.398 68.9375C575.75 69.4883 576.23 69.9219 576.84 70.2383C577.461 70.543 578.158 70.6953 578.932 70.6953C579.787 70.6953 580.52 70.543 581.129 70.2383C581.75 69.9219 582.225 69.4766 582.553 68.9023C582.881 68.3164 583.045 67.6191 583.045 66.8105C583.045 65.8496 582.863 65.0703 582.5 64.4727C582.137 63.875 581.615 63.4355 580.936 63.1543C580.268 62.873 579.471 62.7324 578.545 62.7324H575.926ZM609.184 64.666V68.3223H590.744L590.551 65.5098L601.396 48.4062H605.105L601.098 55.209L595.279 64.666H609.184ZM606.143 48.4062V74H601.484V48.4062H606.143ZM616.584 62.2227L612.875 61.3262L614.299 48.4062H628.379V52.2559H618.148L617.48 58.2324C617.844 58.0098 618.371 57.7871 619.062 57.5645C619.766 57.3301 620.557 57.2129 621.436 57.2129C622.654 57.2129 623.744 57.4121 624.705 57.8105C625.666 58.1973 626.48 58.7598 627.148 59.498C627.828 60.2363 628.338 61.1387 628.678 62.2051C629.029 63.2598 629.205 64.4551 629.205 65.791C629.205 66.9629 629.029 68.0645 628.678 69.0957C628.338 70.1152 627.816 71.0234 627.113 71.8203C626.41 72.6055 625.525 73.2266 624.459 73.6836C623.393 74.1289 622.139 74.3516 620.697 74.3516C619.607 74.3516 618.559 74.1934 617.551 73.877C616.555 73.5488 615.658 73.0742 614.861 72.4531C614.064 71.8203 613.426 71.0469 612.945 70.1328C612.477 69.2188 612.219 68.1699 612.172 66.9863H616.76C616.842 67.7715 617.053 68.4395 617.393 68.9902C617.732 69.541 618.178 69.9629 618.729 70.2559C619.291 70.5488 619.941 70.6953 620.68 70.6953C621.348 70.6953 621.922 70.5723 622.402 70.3262C622.895 70.0684 623.299 69.7109 623.615 69.2539C623.932 68.7969 624.166 68.2578 624.318 67.6367C624.471 67.0156 624.547 66.3359 624.547 65.5977C624.547 64.8828 624.459 64.2324 624.283 63.6465C624.107 63.0488 623.838 62.5332 623.475 62.0996C623.111 61.666 622.654 61.332 622.104 61.0977C621.564 60.8633 620.932 60.7461 620.205 60.7461C619.232 60.7461 618.482 60.8926 617.955 61.1855C617.439 61.4785 616.982 61.8242 616.584 62.2227ZM637.15 62.2227L633.441 61.3262L634.865 48.4062H648.945V52.2559H638.715L638.047 58.2324C638.41 58.0098 638.938 57.7871 639.629 57.5645C640.332 57.3301 641.123 57.2129 642.002 57.2129C643.221 57.2129 644.311 57.4121 645.271 57.8105C646.232 58.1973 647.047 58.7598 647.715 59.498C648.395 60.2363 648.904 61.1387 649.244 62.2051C649.596 63.2598 649.771 64.4551 649.771 65.791C649.771 66.9629 649.596 68.0645 649.244 69.0957C648.904 70.1152 648.383 71.0234 647.68 71.8203C646.977 72.6055 646.092 73.2266 645.025 73.6836C643.959 74.1289 642.705 74.3516 641.264 74.3516C640.174 74.3516 639.125 74.1934 638.117 73.877C637.121 73.5488 636.225 73.0742 635.428 72.4531C634.631 71.8203 633.992 71.0469 633.512 70.1328C633.043 69.2188 632.785 68.1699 632.738 66.9863H637.326C637.408 67.7715 637.619 68.4395 637.959 68.9902C638.299 69.541 638.744 69.9629 639.295 70.2559C639.857 70.5488 640.508 70.6953 641.246 70.6953C641.914 70.6953 642.488 70.5723 642.969 70.3262C643.461 70.0684 643.865 69.7109 644.182 69.2539C644.498 68.7969 644.732 68.2578 644.885 67.6367C645.037 67.0156 645.113 66.3359 645.113 65.5977C645.113 64.8828 645.025 64.2324 644.85 63.6465C644.674 63.0488 644.404 62.5332 644.041 62.0996C643.678 61.666 643.221 61.332 642.67 61.0977C642.131 60.8633 641.498 60.7461 640.771 60.7461C639.799 60.7461 639.049 60.8926 638.521 61.1855C638.006 61.4785 637.549 61.8242 637.15 62.2227ZM670.057 59.0059V63.3125C670.057 65.2812 669.857 66.9629 669.459 68.3574C669.061 69.752 668.486 70.8945 667.736 71.7852C666.986 72.6641 666.09 73.3145 665.047 73.7363C664.004 74.1465 662.844 74.3516 661.566 74.3516C660.547 74.3516 659.598 74.2227 658.719 73.9648C657.84 73.6953 657.049 73.2852 656.346 72.7344C655.654 72.1719 655.057 71.457 654.553 70.5898C654.061 69.7227 653.68 68.6855 653.41 67.4785C653.152 66.2715 653.023 64.8828 653.023 63.3125V59.0059C653.023 57.0371 653.223 55.3613 653.621 53.9785C654.031 52.5957 654.611 51.4648 655.361 50.5859C656.111 49.707 657.008 49.0684 658.051 48.6699C659.094 48.2598 660.254 48.0547 661.531 48.0547C662.562 48.0547 663.512 48.1836 664.379 48.4414C665.258 48.6992 666.043 49.1035 666.734 49.6543C667.438 50.1934 668.035 50.8965 668.527 51.7637C669.02 52.6191 669.395 53.6504 669.652 54.8574C669.922 56.0527 670.057 57.4355 670.057 59.0059ZM665.416 63.9453V58.3555C665.416 57.3711 665.357 56.5156 665.24 55.7891C665.135 55.0508 664.977 54.4238 664.766 53.9082C664.555 53.3926 664.291 52.9766 663.975 52.6602C663.658 52.332 663.295 52.0918 662.885 51.9395C662.475 51.7871 662.023 51.7109 661.531 51.7109C660.922 51.7109 660.377 51.834 659.896 52.0801C659.416 52.3145 659.012 52.6895 658.684 53.2051C658.355 53.7207 658.104 54.4062 657.928 55.2617C657.764 56.1055 657.682 57.1367 657.682 58.3555V63.9453C657.682 64.9297 657.734 65.791 657.84 66.5293C657.957 67.2676 658.121 67.9004 658.332 68.4277C658.555 68.9551 658.818 69.3887 659.123 69.7285C659.439 70.0566 659.803 70.3027 660.213 70.4668C660.623 70.6191 661.074 70.6953 661.566 70.6953C662.188 70.6953 662.732 70.5723 663.201 70.3262C663.682 70.0801 664.086 69.6934 664.414 69.166C664.742 68.627 664.988 67.9297 665.152 67.0742C665.328 66.207 665.416 65.1641 665.416 63.9453ZM690.623 59.0059V63.3125C690.623 65.2812 690.424 66.9629 690.025 68.3574C689.627 69.752 689.053 70.8945 688.303 71.7852C687.553 72.6641 686.656 73.3145 685.613 73.7363C684.57 74.1465 683.41 74.3516 682.133 74.3516C681.113 74.3516 680.164 74.2227 679.285 73.9648C678.406 73.6953 677.615 73.2852 676.912 72.7344C676.221 72.1719 675.623 71.457 675.119 70.5898C674.627 69.7227 674.246 68.6855 673.977 67.4785C673.719 66.2715 673.59 64.8828 673.59 63.3125V59.0059C673.59 57.0371 673.789 55.3613 674.188 53.9785C674.598 52.5957 675.178 51.4648 675.928 50.5859C676.678 49.707 677.574 49.0684 678.617 48.6699C679.66 48.2598 680.82 48.0547 682.098 48.0547C683.129 48.0547 684.078 48.1836 684.945 48.4414C685.824 48.6992 686.609 49.1035 687.301 49.6543C688.004 50.1934 688.602 50.8965 689.094 51.7637C689.586 52.6191 689.961 53.6504 690.219 54.8574C690.488 56.0527 690.623 57.4355 690.623 59.0059ZM685.982 63.9453V58.3555C685.982 57.3711 685.924 56.5156 685.807 55.7891C685.701 55.0508 685.543 54.4238 685.332 53.9082C685.121 53.3926 684.857 52.9766 684.541 52.6602C684.225 52.332 683.861 52.0918 683.451 51.9395C683.041 51.7871 682.59 51.7109 682.098 51.7109C681.488 51.7109 680.943 51.834 680.463 52.0801C679.982 52.3145 679.578 52.6895 679.25 53.2051C678.922 53.7207 678.67 54.4062 678.494 55.2617C678.33 56.1055 678.248 57.1367 678.248 58.3555V63.9453C678.248 64.9297 678.301 65.791 678.406 66.5293C678.523 67.2676 678.688 67.9004 678.898 68.4277C679.121 68.9551 679.385 69.3887 679.689 69.7285C680.006 70.0566 680.369 70.3027 680.779 70.4668C681.189 70.6191 681.641 70.6953 682.133 70.6953C682.754 70.6953 683.299 70.5723 683.768 70.3262C684.248 70.0801 684.652 69.6934 684.98 69.166C685.309 68.627 685.555 67.9297 685.719 67.0742C685.895 66.207 685.982 65.1641 685.982 63.9453ZM719.979 59.8496V63.9805H702.436V59.8496H719.979ZM713.439 52.8008V71.4336H708.992V52.8008H713.439Z" fill="#1B998B"/>
<path d="M604.086 89.1406L600.688 99H598.633L602.914 87.625H604.227L604.086 89.1406ZM606.93 99L603.523 89.1406L603.375 87.625H604.695L608.992 99H606.93ZM606.766 94.7812V96.3359H600.578V94.7812H606.766ZM614.531 93.8594H611.633L611.617 92.4297H614.148C614.576 92.4297 614.938 92.3672 615.234 92.2422C615.536 92.112 615.766 91.9271 615.922 91.6875C616.078 91.4427 616.156 91.1484 616.156 90.8047C616.156 90.4245 616.083 90.1146 615.938 89.875C615.792 89.6354 615.568 89.4609 615.266 89.3516C614.969 89.2422 614.589 89.1875 614.125 89.1875H612.227V99H610.266V87.625H614.125C614.75 87.625 615.307 87.6849 615.797 87.8047C616.292 87.9245 616.711 88.112 617.055 88.3672C617.404 88.6172 617.667 88.9349 617.844 89.3203C618.026 89.7057 618.117 90.1641 618.117 90.6953C618.117 91.1641 618.005 91.5938 617.781 91.9844C617.557 92.3698 617.227 92.6849 616.789 92.9297C616.352 93.1745 615.807 93.3203 615.156 93.3672L614.531 93.8594ZM614.445 99H611.016L611.898 97.4453H614.445C614.888 97.4453 615.258 97.3724 615.555 97.2266C615.852 97.0755 616.073 96.8698 616.219 96.6094C616.37 96.3438 616.445 96.0339 616.445 95.6797C616.445 95.3099 616.38 94.9896 616.25 94.7188C616.12 94.4427 615.914 94.2318 615.633 94.0859C615.352 93.9349 614.984 93.8594 614.531 93.8594H612.328L612.344 92.4297H615.211L615.656 92.9688C616.281 92.9896 616.794 93.1276 617.195 93.3828C617.602 93.638 617.904 93.9688 618.102 94.375C618.299 94.7812 618.398 95.2188 618.398 95.6875C618.398 96.4115 618.24 97.0182 617.922 97.5078C617.609 97.9974 617.159 98.3698 616.57 98.625C615.982 98.875 615.273 99 614.445 99ZM626.359 96.0703C626.359 95.8359 626.323 95.6276 626.25 95.4453C626.182 95.263 626.06 95.0964 625.883 94.9453C625.706 94.7943 625.456 94.6484 625.133 94.5078C624.815 94.362 624.409 94.2135 623.914 94.0625C623.372 93.8958 622.872 93.7109 622.414 93.5078C621.961 93.2995 621.565 93.0599 621.227 92.7891C620.888 92.513 620.625 92.1979 620.438 91.8438C620.25 91.4844 620.156 91.0703 620.156 90.6016C620.156 90.138 620.253 89.7161 620.445 89.3359C620.643 88.9557 620.922 88.6276 621.281 88.3516C621.646 88.0703 622.076 87.8542 622.57 87.7031C623.065 87.5469 623.612 87.4688 624.211 87.4688C625.055 87.4688 625.781 87.625 626.391 87.9375C627.005 88.25 627.477 88.6693 627.805 89.1953C628.138 89.7214 628.305 90.3021 628.305 90.9375H626.359C626.359 90.5625 626.279 90.2318 626.117 89.9453C625.961 89.6536 625.721 89.4245 625.398 89.2578C625.081 89.0911 624.677 89.0078 624.188 89.0078C623.724 89.0078 623.339 89.0781 623.031 89.2188C622.724 89.3594 622.495 89.5495 622.344 89.7891C622.193 90.0286 622.117 90.2995 622.117 90.6016C622.117 90.8151 622.167 91.0104 622.266 91.1875C622.365 91.3594 622.516 91.5208 622.719 91.6719C622.922 91.8177 623.177 91.9557 623.484 92.0859C623.792 92.2161 624.154 92.3411 624.57 92.4609C625.201 92.6484 625.75 92.8568 626.219 93.0859C626.688 93.3099 627.078 93.5651 627.391 93.8516C627.703 94.138 627.938 94.4635 628.094 94.8281C628.25 95.1875 628.328 95.5964 628.328 96.0547C628.328 96.5339 628.232 96.9661 628.039 97.3516C627.846 97.7318 627.57 98.0573 627.211 98.3281C626.857 98.5938 626.43 98.7995 625.93 98.9453C625.435 99.0859 624.883 99.1562 624.273 99.1562C623.727 99.1562 623.188 99.0833 622.656 98.9375C622.13 98.7917 621.651 98.5703 621.219 98.2734C620.786 97.9714 620.443 97.5964 620.188 97.1484C619.932 96.6953 619.805 96.1667 619.805 95.5625H621.766C621.766 95.9323 621.828 96.2474 621.953 96.5078C622.083 96.7682 622.263 96.9818 622.492 97.1484C622.721 97.3099 622.987 97.4297 623.289 97.5078C623.596 97.5859 623.924 97.625 624.273 97.625C624.732 97.625 625.115 97.5599 625.422 97.4297C625.734 97.2995 625.969 97.1172 626.125 96.8828C626.281 96.6484 626.359 96.3776 626.359 96.0703ZM639.133 93V93.625C639.133 94.4844 639.021 95.2552 638.797 95.9375C638.573 96.6198 638.253 97.2005 637.836 97.6797C637.424 98.1589 636.93 98.526 636.352 98.7812C635.773 99.0312 635.133 99.1562 634.43 99.1562C633.732 99.1562 633.094 99.0312 632.516 98.7812C631.943 98.526 631.445 98.1589 631.023 97.6797C630.602 97.2005 630.273 96.6198 630.039 95.9375C629.81 95.2552 629.695 94.4844 629.695 93.625V93C629.695 92.1406 629.81 91.3724 630.039 90.6953C630.268 90.013 630.591 89.4323 631.008 88.9531C631.43 88.4688 631.927 88.1016 632.5 87.8516C633.078 87.5964 633.716 87.4688 634.414 87.4688C635.117 87.4688 635.758 87.5964 636.336 87.8516C636.914 88.1016 637.411 88.4688 637.828 88.9531C638.245 89.4323 638.565 90.013 638.789 90.6953C639.018 91.3724 639.133 92.1406 639.133 93ZM637.172 93.625V92.9844C637.172 92.349 637.109 91.7891 636.984 91.3047C636.865 90.8151 636.685 90.4062 636.445 90.0781C636.211 89.7448 635.922 89.4948 635.578 89.3281C635.234 89.1562 634.846 89.0703 634.414 89.0703C633.982 89.0703 633.596 89.1562 633.258 89.3281C632.919 89.4948 632.63 89.7448 632.391 90.0781C632.156 90.4062 631.977 90.8151 631.852 91.3047C631.727 91.7891 631.664 92.349 631.664 92.9844V93.625C631.664 94.2604 631.727 94.8229 631.852 95.3125C631.977 95.8021 632.159 96.2161 632.398 96.5547C632.643 96.888 632.935 97.1406 633.273 97.3125C633.612 97.4792 633.997 97.5625 634.43 97.5625C634.867 97.5625 635.255 97.4792 635.594 97.3125C635.932 97.1406 636.219 96.888 636.453 96.5547C636.688 96.2161 636.865 95.8021 636.984 95.3125C637.109 94.8229 637.172 94.2604 637.172 93.625ZM648.219 97.4453V99H642.508V97.4453H648.219ZM643.055 87.625V99H641.094V87.625H643.055ZM652.164 96.9219L655.156 87.625H657.32L653.242 99H651.781L652.164 96.9219ZM649.398 87.625L652.367 96.9219L652.773 99H651.305L647.242 87.625H649.398ZM666.039 97.4453V99H660V97.4453H666.039ZM660.555 87.625V99H658.594V87.625H660.555ZM665.25 92.375V93.9062H660V92.375H665.25ZM666 87.625V89.1875H660V87.625H666ZM676.664 87.625V99H674.703L669.602 90.8516V99H667.641V87.625H669.602L674.719 95.7891V87.625H676.664ZM683.445 87.625V99H681.5V87.625H683.445ZM687.016 87.625V89.1875H677.961V87.625H687.016ZM690.609 87.625V99H688.648V87.625H690.609Z" fill="#1B998B"/>
</svg>
