<svg width="14" height="14" viewBox="0 0 14 14" fill="none" xmlns="http://www.w3.org/2000/svg">
<path d="M5.41323 2.94419C5.51406 2.84825 5.64886 2.79627 5.788 2.79969C5.92713 2.8031 6.05922 2.86162 6.15523 2.96239L9.65593 6.63739C9.74901 6.73503 9.80093 6.86475 9.80093 6.99964C9.80093 7.13453 9.74901 7.26425 9.65593 7.36189L6.15593 11.0369C6.05995 11.1378 5.92781 11.1964 5.7886 11.1999C5.64938 11.2034 5.51448 11.1514 5.41358 11.0554C5.31268 10.9595 5.25404 10.8273 5.25056 10.6881C5.24708 10.5489 5.29905 10.414 5.39503 10.3131L8.55133 6.99929L5.39433 3.68619C5.29848 3.58527 5.24663 3.45042 5.25017 3.31128C5.25371 3.17214 5.31236 3.0401 5.41323 2.94419Z" fill="#BA5624"/>
</svg>
