<svg width="14" height="14" viewBox="0 0 14 14" fill="none" xmlns="http://www.w3.org/2000/svg">
<path d="M7.70101 1.67166C7.50828 1.4985 7.25835 1.40271 6.99926 1.40271C6.74017 1.40271 6.49023 1.4985 6.29751 1.67166L2.44751 5.13105C2.33805 5.22949 2.2505 5.34985 2.19057 5.48431C2.13063 5.61878 2.09964 5.76434 2.09961 5.91155V10.8501C2.09961 11.1285 2.21023 11.3956 2.40715 11.5925C2.60406 11.7894 2.87113 11.9001 3.14961 11.9001H4.54961C4.82809 11.9001 5.09516 11.7894 5.29207 11.5925C5.48898 11.3956 5.59961 11.1285 5.59961 10.8501V8.05006C5.59961 7.95723 5.63648 7.86821 5.70212 7.80257C5.76776 7.73693 5.85678 7.70006 5.94961 7.70006H8.04961C8.14243 7.70006 8.23146 7.73693 8.2971 7.80257C8.36273 7.86821 8.39961 7.95723 8.39961 8.05006V10.8501C8.39961 11.1285 8.51023 11.3956 8.70715 11.5925C8.90406 11.7894 9.17113 11.9001 9.44961 11.9001H10.8496C11.1281 11.9001 11.3952 11.7894 11.5921 11.5925C11.789 11.3956 11.8996 11.1285 11.8996 10.8501V5.91155C11.8996 5.76434 11.8686 5.61878 11.8086 5.48431C11.7487 5.34985 11.6612 5.22949 11.5517 5.13105L7.70171 1.67166H7.70101Z" fill="#BA5624"/>
</svg>
