<svg width="49" height="49" viewBox="0 0 49 49" fill="none" xmlns="http://www.w3.org/2000/svg">
<path d="M4.80371 24.5042C4.80484 29.2668 6.50465 33.8729 9.59763 37.4945C12.6906 41.1161 16.9739 43.5158 21.6777 44.2622V30.2842H16.6037V24.5042H21.6837V20.1042C21.5715 19.0743 21.6875 18.0325 22.0234 17.0525C22.3592 16.0725 22.9067 15.1785 23.627 14.434C24.3473 13.6895 25.2226 13.1127 26.191 12.7446C27.1593 12.3765 28.1967 12.2261 29.2297 12.3042C30.7297 12.3282 32.2297 12.4622 33.7097 12.7042V17.6222H31.1817C30.7521 17.5659 30.3152 17.6069 29.9036 17.7421C29.4919 17.8774 29.1158 18.1034 28.8033 18.4035C28.4907 18.7036 28.2495 19.0701 28.0976 19.476C27.9457 19.8818 27.887 20.3166 27.9257 20.7482V24.5042H33.4677L32.5817 30.2862H27.9257V44.2622C31.701 43.6655 35.2262 41.9996 38.084 39.4617C40.9419 36.9238 43.0127 33.6201 44.0512 29.9418C45.0898 26.2635 45.0526 22.3647 43.9441 18.7068C42.8356 15.049 40.7022 11.7854 37.7965 9.30245C34.8907 6.81947 31.3344 5.2211 27.5484 4.69657C23.7625 4.17204 19.9056 4.74332 16.4342 6.34277C12.9629 7.94222 10.0225 10.5029 7.96132 13.7215C5.9001 16.9402 4.80432 20.6821 4.80371 24.5042Z" fill="#DBE4F1"/>
</svg>
