<svg width="38" height="38" viewBox="0 0 38 38" fill="none" xmlns="http://www.w3.org/2000/svg">
<path d="M19 0C29.493 0 38 8.507 38 19C38 29.493 29.493 38 19 38C8.507 38 0 29.493 0 19C0 8.507 8.507 0 19 0ZM17.75 7C17.06 7 16.5 7.56 16.5 8.25V20.25C16.5 20.94 17.06 21.5 17.75 21.5H25.75C26.0815 21.5 26.3995 21.3683 26.6339 21.1339C26.8683 20.8995 27 20.5815 27 20.25C27 19.9185 26.8683 19.6005 26.6339 19.3661C26.3995 19.1317 26.0815 19 25.75 19H19V8.25C19 7.56 18.44 7 17.75 7Z" fill="#17255A"/>
</svg>
