<svg width="40" height="38" viewBox="0 0 40 38" fill="none" xmlns="http://www.w3.org/2000/svg">
<path d="M33.0776 16.3288C34.8869 15.0905 36.2169 13.2694 36.8457 11.1691C37.0374 11.4298 37.2176 11.7 37.3862 11.9798C38.5439 13.8946 39.1668 16.2042 39.1668 18.9565C39.1668 23.1866 37.5702 26.144 35.9468 28.0396C35.2069 28.9028 34.3562 29.6646 33.4168 30.3051V33.8107C33.4171 34.2513 33.3305 34.6877 33.1621 35.0948C32.9936 35.502 32.7466 35.872 32.4351 36.1837C32.1236 36.4953 31.7538 36.7426 31.3467 36.9113C30.9396 37.0799 30.5033 37.1668 30.0627 37.1668H27.6668C26.9043 37.1668 26.1731 36.8639 25.6339 36.3247C25.0947 35.7855 24.7918 35.0543 24.7918 34.2918H20.9585C20.9585 35.0543 20.6556 35.7855 20.1164 36.3247C19.5773 36.8639 18.846 37.1668 18.0835 37.1668H15.6877C14.7981 37.1668 13.9449 36.8134 13.3159 36.1843C12.6869 35.5553 12.3335 34.7022 12.3335 33.8126V32.5035C12.0332 32.4022 11.7366 32.2904 11.4442 32.1681C9.96826 31.5614 8.62363 30.6749 7.48433 29.5576C6.27867 28.3417 5.24378 26.9677 4.40808 25.4732C4.34595 25.3493 4.2572 25.2408 4.14818 25.1553C4.03916 25.0698 3.91257 25.0095 3.7775 24.9787C2.95487 24.8417 2.20754 24.4172 1.66845 23.7809C1.12937 23.1446 0.833505 22.3377 0.833496 21.5038V18.1438C0.833496 16.5281 2.00266 15.15 3.5935 14.8855C3.76025 14.8568 4.0075 14.69 4.12441 14.3412C4.49241 13.2353 5.20733 11.5927 6.526 10.274C7.47636 9.34251 8.54474 8.53961 9.70383 7.88585C9.9645 7.73635 10.206 7.60793 10.4168 7.50251V2.03426C10.4168 0.236429 12.5827 -0.501488 13.7518 0.661929C14.3843 1.29251 15.3043 2.13201 16.3221 2.83543C17.3379 3.53693 18.3097 3.99885 19.1089 4.10043C18.1611 5.97919 17.858 8.11769 18.2464 10.1858C18.5933 12.0201 19.9982 13.1797 21.3169 13.7278L28.4009 16.6603C29.7215 17.2066 31.5327 17.3791 33.0776 16.3268V16.3288ZM12.3335 16.0815C12.8418 16.0815 13.3293 15.8796 13.6888 15.5201C14.0482 15.1607 14.2502 14.6732 14.2502 14.1648C14.2502 13.6565 14.0482 13.169 13.6888 12.8096C13.3293 12.4501 12.8418 12.2482 12.3335 12.2482C11.8252 12.2482 11.3377 12.4501 10.9782 12.8096C10.6188 13.169 10.4168 13.6565 10.4168 14.1648C10.4168 14.6732 10.6188 15.1607 10.9782 15.5201C11.3377 15.8796 11.8252 16.0815 12.3335 16.0815ZM31.9966 14.7456C32.8858 14.1366 33.6368 13.3473 34.2008 12.429C34.7648 11.5106 35.1292 10.4838 35.2702 9.41535C35.413 8.3166 35.316 7.19996 34.9858 6.14232C34.6555 5.08469 34.1 4.1112 33.3574 3.2889C32.6148 2.4666 31.7028 1.81502 30.6842 1.37906C29.6656 0.943091 28.5645 0.73309 27.457 0.763517C26.3494 0.793944 25.2616 1.06408 24.2685 1.55531C23.2753 2.04654 22.4004 2.7472 21.7041 3.60903C21.0078 4.47086 20.5065 5.47339 20.2349 6.54756C19.9632 7.62172 19.9276 8.74201 20.1305 9.83126C20.1784 10.0804 20.2627 10.3143 20.3797 10.5308C20.4755 10.7091 20.5905 10.8758 20.7247 11.0292C21.0735 11.4317 21.5412 11.746 22.051 11.9588L29.135 14.8913C30.0742 15.2803 31.1571 15.3187 31.9966 14.7456Z" fill="#17255A"/>
</svg>
