<svg width="42" height="36" viewBox="0 0 42 36" fill="none" xmlns="http://www.w3.org/2000/svg">
<path d="M7 29.5V21.968L15.12 27.274C16.8683 28.4164 18.9116 29.0247 21 29.0247C23.0884 29.0247 25.1317 28.4164 26.88 27.274L35 21.968V29.5C35 29.8246 34.8947 30.1404 34.7 30.4L34.698 30.402L34.696 30.406L34.69 30.414L34.672 30.434L34.648 30.466L34.622 30.5L34.45 30.702C34.2482 30.931 34.0367 31.1512 33.816 31.362C33.262 31.896 32.436 32.59 31.316 33.278C29.074 34.658 25.678 36 21 36C16.322 36 12.928 34.66 10.682 33.278C9.78326 32.7303 8.94523 32.0887 8.182 31.364C7.87921 31.0719 7.59404 30.762 7.328 30.436L7.31 30.416L7.304 30.406V30.402C7.10807 30.142 7.00144 29.8256 7 29.5ZM41.32 14.256L25.24 24.762C23.9794 25.586 22.506 26.0247 21 26.0247C19.494 26.0247 18.0206 25.586 16.76 24.762L3 15.772V26.5C3 26.8978 2.84196 27.2794 2.56066 27.5607C2.27936 27.842 1.89782 28 1.5 28C1.10218 28 0.720644 27.842 0.43934 27.5607C0.158035 27.2794 0 26.8978 0 26.5V14C0 13.824 0.03 13.656 0.086 13.5C-0.0266341 13.1812 -0.0282654 12.8337 0.0813704 12.5139C0.191006 12.1941 0.405478 11.9207 0.69 11.738L16.818 1.39802C18.0661 0.598054 19.5175 0.172852 21 0.172852C22.4825 0.172852 23.9339 0.598054 25.182 1.39802L41.31 11.738C41.5206 11.8733 41.6941 12.0591 41.8145 12.2785C41.935 12.4979 41.9986 12.744 41.9996 12.9943C42.0006 13.2446 41.9389 13.4912 41.8202 13.7116C41.7015 13.9319 41.5296 14.1191 41.32 14.256Z" fill="#17255A"/>
</svg>
